<svg xmlns="http://www.w3.org/2000/svg" xmlns:xlink="http://www.w3.org/1999/xlink" width="36" height="36" viewBox="0 0 36 36">
    <defs>
        <path id="a" d="M2.963 24.102C.857 19.73 1.003 12.298 1.003 4.32 1.002 4.32 6.365 0 18 0s16.998 4.32 16.998 4.32c0 7.978.147 15.593-1.959 19.964C29.84 30.926 24.827 34.832 18 36c-6.825-1.29-11.838-5.256-15.037-11.898z"/>
    </defs>
    <g fill="none" fill-rule="evenodd">
        <g>
            <use fill="#46AFFD" xlink:href="#a"/>
            <path stroke="#3B9FE8" stroke-width="3" d="M18.013 34.474c6.202-1.139 10.724-4.715 13.675-10.84 1.51-3.136 1.823-7.218 1.81-17.85v-.676c-.085-.053-.18-.11-.284-.172a19.533 19.533 0 0 0-2.893-1.377C26.998 2.275 22.903 1.5 18 1.5c-4.904 0-8.998.775-12.321 2.06a19.533 19.533 0 0 0-2.893 1.376c-.104.061-.199.119-.284.172v.655C2.488 16.31 2.8 20.307 4.313 23.45c2.955 6.133 7.487 9.772 13.7 11.023z"/>
        </g>
        <path fill="#FEFEFE" d="M13.07 9.453c4.138-2.707 9.67-1.522 12.358 2.646.153.236.292.478.42.723l.01.02a.499.499 0 0 1-.173.636l-8.353 5.463a.49.49 0 0 1-.681-.146l-.434-.673a1.305 1.305 0 0 1 .379-1.797l5.32-3.481a.499.499 0 0 0 .051-.794 6.322 6.322 0 0 0-7.493-.42c-2.944 1.927-3.78 5.891-1.869 8.857a6.328 6.328 0 0 0 8.785 1.886l.007-.005.007-.004a1.284 1.284 0 0 1 1.777.386l.412.64v.001l.001.001a.499.499 0 0 1-.104.656c-.22.175-.45.342-.689.5-4.138 2.706-9.671 1.521-12.358-2.647-2.688-4.168-1.512-9.741 2.626-12.448zm12.465 7.285a.49.49 0 0 1 .681.145l.543.843a1.507 1.507 0 0 1-.438 2.076l-.836.547a.49.49 0 0 1-.681-.146l-1.087-1.685a.498.498 0 0 1 .145-.686l1.673-1.094z"/>
    </g>
</svg>
